<svg width="34" height="25" viewBox="0 0 34 25" fill="none" xmlns="http://www.w3.org/2000/svg">
<path d="M0.452497 11.4259L6.63444 5.18991C6.777 5.04101 6.94754 4.92225 7.13609 4.84054C7.32465 4.75883 7.52745 4.71583 7.73265 4.71403C7.93786 4.71223 8.14137 4.75168 8.33131 4.83006C8.52124 4.90845 8.6938 5.02421 8.83891 5.17059C8.98402 5.31697 9.09877 5.49103 9.17648 5.68262C9.25419 5.87422 9.29329 6.07951 9.29151 6.28651C9.28973 6.49351 9.24709 6.69808 9.1661 6.88828C9.0851 7.07849 8.96736 7.25051 8.81975 7.39432L3.73047 12.5281L8.81975 17.6618C8.96736 17.8056 9.0851 17.9777 9.1661 18.1679C9.24709 18.3581 9.28973 18.5626 9.29151 18.7697C9.29329 18.9767 9.25419 19.1819 9.17648 19.3735C9.09877 19.5651 8.98402 19.7392 8.83891 19.8856C8.6938 20.0319 8.52124 20.1477 8.33131 20.2261C8.14137 20.3045 7.93786 20.3439 7.73265 20.3421C7.52745 20.3403 7.32465 20.2973 7.13609 20.2156C6.94754 20.1339 6.777 20.0151 6.63444 19.8662L0.452497 13.6303C0.162763 13.3379 0 12.9415 0 12.5281C0 12.1147 0.162763 11.7182 0.452497 11.4259ZM27.3656 5.18991C27.223 5.04101 27.0525 4.92225 26.8639 4.84054C26.6754 4.75883 26.4726 4.71583 26.2673 4.71403C26.0621 4.71223 25.8586 4.75168 25.6687 4.83006C25.4788 4.90845 25.3062 5.02421 25.1611 5.17059C25.016 5.31697 24.9012 5.49103 24.8235 5.68262C24.7458 5.87422 24.7067 6.07951 24.7085 6.28651C24.7103 6.49351 24.7529 6.69808 24.8339 6.88828C24.9149 7.07849 25.0326 7.25051 25.1802 7.39432L30.2695 12.5281L25.1802 17.6618C25.0326 17.8056 24.9149 17.9777 24.8339 18.1679C24.7529 18.3581 24.7103 18.5626 24.7085 18.7697C24.7067 18.9767 24.7458 19.1819 24.8235 19.3735C24.9012 19.5651 25.016 19.7392 25.1611 19.8856C25.3062 20.0319 25.4788 20.1477 25.6687 20.2261C25.8586 20.3045 26.0621 20.3439 26.2673 20.3421C26.4726 20.3403 26.6754 20.2973 26.8639 20.2156C27.0525 20.1339 27.223 20.0151 27.3656 19.8662L33.5475 13.6303C33.8372 13.3379 34 12.9415 34 12.5281C34 12.1147 33.8372 11.7182 33.5475 11.4259L27.3656 5.18991ZM18.6058 1.18798L12.4238 23.0138C12.3113 23.4112 12.3597 23.8373 12.5585 24.1987C12.7573 24.56 13.0902 24.8269 13.484 24.9408C13.6225 24.9793 13.7654 24.9993 13.909 25C14.2449 24.9998 14.5715 24.8892 14.8395 24.6849C15.1075 24.4807 15.3022 24.194 15.3942 23.8682L21.5762 2.04231C21.6406 1.84299 21.6645 1.63262 21.6465 1.42376C21.6285 1.21491 21.5689 1.01186 21.4713 0.826781C21.3737 0.641697 21.24 0.478374 21.0784 0.346581C20.9168 0.214787 20.7305 0.117232 20.5306 0.0597486C20.3307 0.00226552 20.1214 -0.0139639 19.9152 0.0120312C19.709 0.0380263 19.5101 0.105712 19.3304 0.211039C19.1507 0.316367 18.9939 0.457171 18.8694 0.625032C18.7449 0.792893 18.6552 0.984361 18.6058 1.18798Z" fill="white"/>
</svg>
