<svg width="108" height="38" viewBox="0 0 108 38" fill="none" xmlns="http://www.w3.org/2000/svg">
<path d="M2 2H16.2534C13.3889 2.82932 9.79697 6.12027 10.3274 13.3271M10.3274 13.3271C10.6324 17.4711 15.1155 23.6746 15.1155 30.777C15.1155 46.3808 -1.70726 20.8581 10.3274 13.3271ZM10.3274 13.3271C12.3626 12.9597 17.5949 12.9475 22.2422 15.8374" stroke="white" stroke-width="4" stroke-linecap="round"/>
<path d="M28.0223 8.63534V6.52972H37.9429V8.63534H34.2448V18.609H31.7204V8.63534H28.0223Z" fill="white"/>
<path d="M40.8802 18.7801C40.3022 18.7801 39.7871 18.6798 39.3349 18.4793C38.8827 18.2748 38.5249 17.974 38.2614 17.5768C38.0019 17.1758 37.8721 16.6764 37.8721 16.0787C37.8721 15.5754 37.9646 15.1527 38.1494 14.8106C38.3342 14.4686 38.5858 14.1933 38.9043 13.9849C39.2228 13.7765 39.5846 13.6192 39.9896 13.5131C40.3985 13.4069 40.8271 13.3322 41.2753 13.2889C41.8022 13.2339 42.2269 13.1828 42.5493 13.1356C42.8718 13.0845 43.1057 13.0098 43.2512 12.9115C43.3967 12.8132 43.4694 12.6677 43.4694 12.475V12.4396C43.4694 12.0661 43.3515 11.7771 43.1155 11.5726C42.8836 11.3681 42.5533 11.2659 42.1247 11.2659C41.6725 11.2659 41.3127 11.3662 41.0453 11.5667C40.7779 11.7633 40.601 12.011 40.5145 12.3099L38.1906 12.1211C38.3086 11.5706 38.5406 11.0948 38.8866 10.6938C39.2326 10.2888 39.6789 9.97814 40.2255 9.76188C40.776 9.54168 41.413 9.43158 42.1365 9.43158C42.6398 9.43158 43.1214 9.49057 43.5815 9.60853C44.0455 9.72649 44.4564 9.90933 44.8142 10.157C45.1759 10.4048 45.461 10.7233 45.6694 11.1125C45.8778 11.4979 45.982 11.9599 45.982 12.4986V18.609H43.5992V17.3527H43.5284C43.3829 17.6358 43.1883 17.8855 42.9445 18.1018C42.7007 18.3141 42.4078 18.4812 42.0657 18.6031C41.7236 18.7211 41.3284 18.7801 40.8802 18.7801ZM41.5997 17.046C41.9694 17.046 42.2957 16.9733 42.5788 16.8278C42.8619 16.6784 43.0841 16.4778 43.2453 16.2262C43.4065 15.9745 43.4871 15.6895 43.4871 15.371V14.4096C43.4085 14.4607 43.3004 14.5079 43.1627 14.5511C43.029 14.5904 42.8777 14.6278 42.7086 14.6632C42.5395 14.6946 42.3704 14.7241 42.2013 14.7517C42.0323 14.7753 41.8789 14.7969 41.7413 14.8165C41.4464 14.8598 41.1888 14.9286 40.9686 15.023C40.7484 15.1173 40.5774 15.2451 40.4555 15.4063C40.3336 15.5636 40.2727 15.7602 40.2727 15.9962C40.2727 16.3382 40.3965 16.5997 40.6442 16.7806C40.8959 16.9575 41.2144 17.046 41.5997 17.046Z" fill="white"/>
<path d="M55.4691 12.1329L53.1688 12.2745C53.1295 12.0779 53.045 11.9009 52.9152 11.7436C52.7855 11.5824 52.6144 11.4546 52.4021 11.3603C52.1937 11.262 51.944 11.2128 51.653 11.2128C51.2638 11.2128 50.9354 11.2954 50.6681 11.4605C50.4007 11.6217 50.267 11.838 50.267 12.1093C50.267 12.3256 50.3535 12.5084 50.5265 12.6578C50.6995 12.8073 50.9964 12.9272 51.4171 13.0176L53.0568 13.3479C53.9376 13.5288 54.5942 13.8198 55.0267 14.2208C55.4593 14.6219 55.6755 15.1488 55.6755 15.8015C55.6755 16.3953 55.5006 16.9163 55.1506 17.3645C54.8046 17.8128 54.3288 18.1627 53.7233 18.4144C53.1217 18.6621 52.4276 18.786 51.6412 18.786C50.442 18.786 49.4865 18.5363 48.7748 18.0369C48.067 17.5336 47.6522 16.8494 47.5303 15.9844L50.0016 15.8546C50.0763 16.2203 50.2572 16.4995 50.5442 16.6921C50.8312 16.8809 51.1989 16.9752 51.6471 16.9752C52.0875 16.9752 52.4414 16.8907 52.7088 16.7216C52.9801 16.5486 53.1177 16.3265 53.1217 16.0551C53.1177 15.8271 53.0214 15.6403 52.8326 15.4948C52.6439 15.3454 52.3529 15.2314 51.9597 15.1527L50.3908 14.8401C49.5061 14.6632 48.8475 14.3565 48.415 13.92C47.9864 13.4836 47.7721 12.9272 47.7721 12.2509C47.7721 11.6689 47.9294 11.1676 48.2439 10.7469C48.5624 10.3261 49.0087 10.0017 49.5828 9.77367C50.1608 9.54561 50.8371 9.43158 51.6117 9.43158C52.756 9.43158 53.6564 9.67341 54.3131 10.157C54.9737 10.6407 55.359 11.2993 55.4691 12.1329Z" fill="white"/>
<path d="M59.5344 16.0021L59.5403 12.9881H59.9059L62.8078 9.54955H65.692L61.7933 14.1029H61.1976L59.5344 16.0021ZM57.2577 18.609V6.52972H59.7703V18.609H57.2577ZM62.9199 18.609L60.2539 14.6632L61.929 12.8879L65.863 18.609H62.9199Z" fill="white"/>
<path d="M70.8159 18.609V6.52972H78.8137V8.63534H73.3698V11.5136H78.2829V13.6192H73.3698V18.609H70.8159Z" fill="white"/>
<path d="M82.9969 6.52972V18.609H80.4844V6.52972H82.9969Z" fill="white"/>
<path d="M89.1029 18.786C88.1868 18.786 87.3945 18.5913 86.726 18.202C86.0615 17.8088 85.5484 17.2623 85.1866 16.5624C84.8249 15.8585 84.644 15.0426 84.644 14.1147C84.644 13.1788 84.8249 12.361 85.1866 11.6611C85.5484 10.9572 86.0615 10.4107 86.726 10.0214C87.3945 9.62819 88.1868 9.43158 89.1029 9.43158C90.0191 9.43158 90.8095 9.62819 91.474 10.0214C92.1424 10.4107 92.6575 10.9572 93.0193 11.6611C93.381 12.361 93.5619 13.1788 93.5619 14.1147C93.5619 15.0426 93.381 15.8585 93.0193 16.5624C92.6575 17.2623 92.1424 17.8088 91.474 18.202C90.8095 18.5913 90.0191 18.786 89.1029 18.786ZM89.1147 16.8396C89.5315 16.8396 89.8795 16.7216 90.1587 16.4857C90.4379 16.2458 90.6482 15.9195 90.7898 15.5066C90.9353 15.0938 91.008 14.6239 91.008 14.097C91.008 13.5701 90.9353 13.1002 90.7898 12.6873C90.6482 12.2745 90.4379 11.9481 90.1587 11.7082C89.8795 11.4684 89.5315 11.3485 89.1147 11.3485C88.694 11.3485 88.3401 11.4684 88.0531 11.7082C87.77 11.9481 87.5557 12.2745 87.4102 12.6873C87.2686 13.1002 87.1979 13.5701 87.1979 14.097C87.1979 14.6239 87.2686 15.0938 87.4102 15.5066C87.5557 15.9195 87.77 16.2458 88.0531 16.4857C88.3401 16.7216 88.694 16.8396 89.1147 16.8396Z" fill="white"/>
<path d="M96.7557 18.609L94.2903 9.54955H96.8324L98.2361 15.6364H98.3187L99.7814 9.54955H102.276L103.763 15.601H103.839L105.219 9.54955H107.756L105.296 18.609H102.636L101.079 12.9115H100.967L99.4099 18.609H96.7557Z" fill="white"/>
<path d="M29.9097 26.713V26.0642H34.4395V26.713H32.5403V32.1038H31.8089V26.713H29.9097Z" fill="white"/>
<path d="M36.1905 32.21C35.9034 32.21 35.6429 32.1559 35.409 32.0478C35.175 31.9377 34.9892 31.7794 34.8516 31.573C34.714 31.3646 34.6452 31.113 34.6452 30.8181C34.6452 30.5585 34.6963 30.3482 34.7985 30.187C34.9007 30.0238 35.0374 29.896 35.2084 29.8036C35.3795 29.7112 35.5682 29.6424 35.7746 29.5972C35.983 29.55 36.1924 29.5126 36.4028 29.4851C36.678 29.4497 36.9012 29.4232 37.0722 29.4055C37.2452 29.3858 37.3711 29.3534 37.4497 29.3081C37.5303 29.2629 37.5706 29.1843 37.5706 29.0722V29.0486C37.5706 28.7577 37.491 28.5316 37.3317 28.3703C37.1745 28.2091 36.9356 28.1285 36.6151 28.1285C36.2829 28.1285 36.0224 28.2013 35.8336 28.3468C35.6449 28.4922 35.5122 28.6476 35.4355 28.8127L34.7749 28.5768C34.8929 28.3015 35.0502 28.0872 35.2468 27.9339C35.4453 27.7786 35.6616 27.6704 35.8956 27.6095C36.1315 27.5466 36.3635 27.5151 36.5915 27.5151C36.737 27.5151 36.9041 27.5328 37.0929 27.5682C37.2836 27.6016 37.4674 27.6714 37.6443 27.7776C37.8232 27.8838 37.9717 28.044 38.0896 28.2583C38.2076 28.4726 38.2666 28.7596 38.2666 29.1194V32.1038H37.5706V31.4904H37.5352C37.488 31.5887 37.4094 31.6939 37.2993 31.806C37.1892 31.918 37.0427 32.0134 36.8599 32.092C36.677 32.1707 36.4539 32.21 36.1905 32.21ZM36.2966 31.5848C36.5719 31.5848 36.8039 31.5307 36.9926 31.4226C37.1833 31.3145 37.3268 31.1749 37.4232 31.0038C37.5215 30.8328 37.5706 30.6529 37.5706 30.4642V29.8272C37.5411 29.8626 37.4762 29.895 37.376 29.9245C37.2777 29.952 37.1636 29.9766 37.0339 29.9982C36.9061 30.0179 36.7812 30.0356 36.6594 30.0513C36.5394 30.0651 36.4421 30.0769 36.3674 30.0867C36.1865 30.1103 36.0174 30.1486 35.8602 30.2017C35.7048 30.2528 35.579 30.3305 35.4827 30.4347C35.3883 30.5369 35.3411 30.6765 35.3411 30.8534C35.3411 31.0953 35.4306 31.2781 35.6095 31.402C35.7904 31.5239 36.0194 31.5848 36.2966 31.5848Z" fill="white"/>
<path d="M42.7454 28.5886L42.1202 28.7655C42.0809 28.6613 42.0229 28.5601 41.9463 28.4618C41.8715 28.3615 41.7693 28.2789 41.6396 28.214C41.5098 28.1492 41.3437 28.1167 41.1412 28.1167C40.864 28.1167 40.6329 28.1806 40.4481 28.3084C40.2653 28.4342 40.1739 28.5945 40.1739 28.7891C40.1739 28.9621 40.2368 29.0988 40.3626 29.199C40.4884 29.2993 40.685 29.3829 40.9524 29.4497L41.6248 29.6148C42.0298 29.7131 42.3316 29.8635 42.5302 30.066C42.7287 30.2666 42.828 30.5251 42.828 30.8416C42.828 31.1012 42.7533 31.3332 42.6039 31.5376C42.4564 31.7421 42.25 31.9033 41.9846 32.0213C41.7192 32.1392 41.4105 32.1982 41.0586 32.1982C40.5966 32.1982 40.2142 32.0979 39.9114 31.8974C39.6086 31.6969 39.417 31.4039 39.3363 31.0186L39.9969 30.8534C40.0598 31.0972 40.1788 31.2801 40.3538 31.402C40.5307 31.5239 40.7617 31.5848 41.0468 31.5848C41.3712 31.5848 41.6287 31.516 41.8194 31.3784C42.0121 31.2388 42.1084 31.0717 42.1084 30.877C42.1084 30.7198 42.0534 30.588 41.9433 30.4819C41.8332 30.3737 41.6641 30.2931 41.4361 30.24L40.6811 30.0631C40.2663 29.9648 39.9615 29.8124 39.7669 29.606C39.5742 29.3976 39.4779 29.1371 39.4779 28.8245C39.4779 28.5689 39.5497 28.3428 39.6932 28.1462C39.8387 27.9496 40.0363 27.7953 40.2859 27.6832C40.5376 27.5712 40.8227 27.5151 41.1412 27.5151C41.5894 27.5151 41.9413 27.6134 42.1969 27.81C42.4545 28.0066 42.6373 28.2661 42.7454 28.5886Z" fill="white"/>
<path d="M44.5245 30.4524L44.5127 29.5913H44.6542L46.636 27.5741H47.4971L45.3856 29.7092H45.3266L44.5245 30.4524ZM43.8757 32.1038V26.0642H44.5716V32.1038H43.8757ZM46.7539 32.1038L44.9845 29.8626L45.4799 29.3789L47.6386 32.1038H46.7539Z" fill="white"/>
<path d="M50.7285 32.1038V27.5741H51.4009V28.2819H51.4599C51.5542 28.0401 51.7066 27.8523 51.917 27.7186C52.1273 27.583 52.38 27.5151 52.6749 27.5151C52.9737 27.5151 53.2224 27.583 53.421 27.7186C53.6215 27.8523 53.7778 28.0401 53.8899 28.2819H53.9371C54.0531 28.0479 54.2271 27.8621 54.459 27.7245C54.691 27.5849 54.9692 27.5151 55.2936 27.5151C55.6986 27.5151 56.0299 27.6419 56.2875 27.8956C56.545 28.1472 56.6738 28.5394 56.6738 29.0722V32.1038H55.9778V29.0722C55.9778 28.738 55.8864 28.4991 55.7035 28.3556C55.5207 28.2121 55.3054 28.1403 55.0577 28.1403C54.7392 28.1403 54.4925 28.2367 54.3175 28.4293C54.1425 28.62 54.055 28.8619 54.055 29.1548V32.1038H53.3473V29.0014C53.3473 28.7439 53.2637 28.5365 53.0966 28.3792C52.9295 28.2199 52.7142 28.1403 52.4507 28.1403C52.2699 28.1403 52.1008 28.1885 51.9435 28.2848C51.7882 28.3812 51.6624 28.5149 51.566 28.6859C51.4717 28.855 51.4245 29.0506 51.4245 29.2728V32.1038H50.7285Z" fill="white"/>
<path d="M59.2793 32.21C58.9922 32.21 58.7317 32.1559 58.4978 32.0478C58.2638 31.9377 58.078 31.7794 57.9404 31.573C57.8028 31.3646 57.734 31.113 57.734 30.8181C57.734 30.5585 57.7851 30.3482 57.8873 30.187C57.9895 30.0238 58.1262 29.896 58.2972 29.8036C58.4683 29.7112 58.657 29.6424 58.8634 29.5972C59.0718 29.55 59.2812 29.5126 59.4916 29.4851C59.7668 29.4497 59.99 29.4232 60.161 29.4055C60.334 29.3858 60.4599 29.3534 60.5385 29.3081C60.6191 29.2629 60.6594 29.1843 60.6594 29.0722V29.0486C60.6594 28.7577 60.5798 28.5316 60.4205 28.3703C60.2633 28.2091 60.0244 28.1285 59.7039 28.1285C59.3717 28.1285 59.1112 28.2013 58.9224 28.3468C58.7337 28.4922 58.601 28.6476 58.5243 28.8127L57.8637 28.5768C57.9817 28.3015 58.139 28.0872 58.3356 27.9339C58.5341 27.7786 58.7504 27.6704 58.9844 27.6095C59.2203 27.5466 59.4523 27.5151 59.6803 27.5151C59.8258 27.5151 59.9929 27.5328 60.1817 27.5682C60.3724 27.6016 60.5562 27.6714 60.7331 27.7776C60.912 27.8838 61.0605 28.044 61.1784 28.2583C61.2964 28.4726 61.3554 28.7596 61.3554 29.1194V32.1038H60.6594V31.4904H60.624C60.5768 31.5887 60.4982 31.6939 60.3881 31.806C60.278 31.918 60.1315 32.0134 59.9487 32.092C59.7659 32.1707 59.5427 32.21 59.2793 32.21ZM59.3854 31.5848C59.6607 31.5848 59.8927 31.5307 60.0814 31.4226C60.2721 31.3145 60.4156 31.1749 60.512 31.0038C60.6103 30.8328 60.6594 30.6529 60.6594 30.4642V29.8272C60.6299 29.8626 60.565 29.895 60.4648 29.9245C60.3665 29.952 60.2524 29.9766 60.1227 29.9982C59.9949 30.0179 59.8701 30.0356 59.7482 30.0513C59.6282 30.0651 59.5309 30.0769 59.4562 30.0867C59.2753 30.1103 59.1063 30.1486 58.949 30.2017C58.7937 30.2528 58.6678 30.3305 58.5715 30.4347C58.4771 30.5369 58.4299 30.6765 58.4299 30.8534C58.4299 31.0953 58.5194 31.2781 58.6983 31.402C58.8792 31.5239 59.1082 31.5848 59.3854 31.5848Z" fill="white"/>
<path d="M63.3217 29.3789V32.1038H62.6257V27.5741H63.2981V28.2819H63.3571C63.4632 28.0519 63.6244 27.867 63.8407 27.7275C64.057 27.5859 64.3361 27.5151 64.6782 27.5151C64.9849 27.5151 65.2533 27.578 65.4833 27.7039C65.7133 27.8277 65.8923 28.0165 66.02 28.2701C66.1478 28.5217 66.2117 28.8402 66.2117 29.2256V32.1038H65.5158V29.2728C65.5158 28.9169 65.4233 28.6397 65.2385 28.4411C65.0537 28.2406 64.8001 28.1403 64.4777 28.1403C64.2555 28.1403 64.057 28.1885 63.882 28.2848C63.709 28.3812 63.5723 28.5217 63.4721 28.7065C63.3718 28.8913 63.3217 29.1155 63.3217 29.3789Z" fill="white"/>
<path d="M68.8165 32.21C68.5294 32.21 68.2689 32.1559 68.035 32.0478C67.801 31.9377 67.6152 31.7794 67.4776 31.573C67.34 31.3646 67.2712 31.113 67.2712 30.8181C67.2712 30.5585 67.3223 30.3482 67.4245 30.187C67.5268 30.0238 67.6634 29.896 67.8344 29.8036C68.0055 29.7112 68.1942 29.6424 68.4007 29.5972C68.6091 29.55 68.8184 29.5126 69.0288 29.4851C69.304 29.4497 69.5272 29.4232 69.6982 29.4055C69.8712 29.3858 69.9971 29.3534 70.0757 29.3081C70.1563 29.2629 70.1966 29.1843 70.1966 29.0722V29.0486C70.1966 28.7577 70.117 28.5316 69.9578 28.3703C69.8005 28.2091 69.5616 28.1285 69.2411 28.1285C68.9089 28.1285 68.6484 28.2013 68.4596 28.3468C68.2709 28.4922 68.1382 28.6476 68.0615 28.8127L67.4009 28.5768C67.5189 28.3015 67.6762 28.0872 67.8728 27.9339C68.0713 27.7786 68.2876 27.6704 68.5216 27.6095C68.7575 27.5466 68.9895 27.5151 69.2175 27.5151C69.363 27.5151 69.5301 27.5328 69.7189 27.5682C69.9096 27.6016 70.0934 27.6714 70.2704 27.7776C70.4493 27.8838 70.5977 28.044 70.7157 28.2583C70.8336 28.4726 70.8926 28.7596 70.8926 29.1194V32.1038H70.1966V31.4904H70.1612C70.1141 31.5887 70.0354 31.6939 69.9253 31.806C69.8152 31.918 69.6687 32.0134 69.4859 32.092C69.3031 32.1707 69.0799 32.21 68.8165 32.21ZM68.9226 31.5848C69.1979 31.5848 69.4299 31.5307 69.6186 31.4226C69.8093 31.3145 69.9528 31.1749 70.0492 31.0038C70.1475 30.8328 70.1966 30.6529 70.1966 30.4642V29.8272C70.1671 29.8626 70.1023 29.895 70.002 29.9245C69.9037 29.952 69.7897 29.9766 69.6599 29.9982C69.5321 30.0179 69.4073 30.0356 69.2854 30.0513C69.1654 30.0651 69.0681 30.0769 68.9934 30.0867C68.8125 30.1103 68.6435 30.1486 68.4862 30.2017C68.3309 30.2528 68.205 30.3305 68.1087 30.4347C68.0143 30.5369 67.9671 30.6765 67.9671 30.8534C67.9671 31.0953 68.0566 31.2781 68.2355 31.402C68.4164 31.5239 68.6454 31.5848 68.9226 31.5848Z" fill="white"/>
<path d="M73.9913 33.8969C73.6551 33.8969 73.3661 33.8536 73.1243 33.7671C72.8825 33.6826 72.681 33.5705 72.5197 33.4309C72.3605 33.2933 72.2337 33.1458 72.1393 32.9886L72.6937 32.5993C72.7566 32.6819 72.8363 32.7762 72.9326 32.8824C73.0289 32.9905 73.1607 33.0839 73.3278 33.1625C73.4968 33.2432 73.718 33.2835 73.9913 33.2835C74.357 33.2835 74.6588 33.195 74.8967 33.018C75.1346 32.8411 75.2535 32.5639 75.2535 32.1864V31.2663H75.1945C75.1434 31.3489 75.0707 31.4511 74.9763 31.573C74.8839 31.6929 74.7502 31.8001 74.5752 31.8945C74.4022 31.9869 74.1682 32.0331 73.8733 32.0331C73.5077 32.0331 73.1793 31.9466 72.8884 31.7735C72.5994 31.6005 72.3703 31.3489 72.2012 31.0186C72.0341 30.6883 71.9506 30.2872 71.9506 29.8154C71.9506 29.3514 72.0322 28.9474 72.1953 28.6033C72.3585 28.2573 72.5856 27.9899 72.8766 27.8012C73.1675 27.6105 73.5037 27.5151 73.8851 27.5151C74.18 27.5151 74.414 27.5643 74.587 27.6626C74.762 27.7589 74.8957 27.869 74.9881 27.9929C75.0825 28.1148 75.1552 28.215 75.2063 28.2937H75.2771V27.5741H75.9495V32.2336C75.9495 32.6229 75.861 32.9394 75.6841 33.1832C75.5091 33.4289 75.2732 33.6088 74.9763 33.7229C74.6814 33.8389 74.3531 33.8969 73.9913 33.8969ZM73.9677 31.4079C74.2469 31.4079 74.4828 31.344 74.6755 31.2162C74.8682 31.0884 75.0146 30.9046 75.1149 30.6647C75.2152 30.4248 75.2653 30.1378 75.2653 29.8036C75.2653 29.4772 75.2161 29.1892 75.1178 28.9395C75.0195 28.6898 74.8741 28.4942 74.6814 28.3527C74.4887 28.2111 74.2508 28.1403 73.9677 28.1403C73.6728 28.1403 73.4271 28.215 73.2305 28.3645C73.0358 28.5139 72.8893 28.7144 72.791 28.9661C72.6947 29.2177 72.6465 29.4969 72.6465 29.8036C72.6465 30.1181 72.6957 30.3963 72.794 30.6382C72.8943 30.878 73.0417 31.0668 73.2364 31.2044C73.433 31.34 73.6767 31.4079 73.9677 31.4079Z" fill="white"/>
<path d="M79.1226 32.1982C78.6862 32.1982 78.3097 32.1019 77.9932 31.9092C77.6786 31.7146 77.4358 31.4433 77.2647 31.0953C77.0957 30.7453 77.0111 30.3383 77.0111 29.8744C77.0111 29.4104 77.0957 29.0014 77.2647 28.6476C77.4358 28.2917 77.6737 28.0145 77.9784 27.8159C78.2851 27.6154 78.6429 27.5151 79.0519 27.5151C79.2878 27.5151 79.5208 27.5544 79.7508 27.6331C79.9808 27.7117 80.1902 27.8395 80.3789 28.0165C80.5677 28.1914 80.7181 28.4234 80.8301 28.7124C80.9422 29.0014 80.9982 29.3573 80.9982 29.78V30.0749H77.5066V29.4733H80.2905C80.2905 29.2177 80.2393 28.9896 80.1371 28.7891C80.0368 28.5886 79.8933 28.4303 79.7066 28.3143C79.5217 28.1983 79.3035 28.1403 79.0519 28.1403C78.7747 28.1403 78.5348 28.2091 78.3323 28.3468C78.1318 28.4824 77.9774 28.6594 77.8693 28.8776C77.7612 29.0958 77.7071 29.3298 77.7071 29.5795V29.9805C77.7071 30.3226 77.7661 30.6126 77.884 30.8505C78.004 31.0864 78.1701 31.2663 78.3824 31.3902C78.5948 31.5121 78.8415 31.573 79.1226 31.573C79.3055 31.573 79.4706 31.5475 79.6181 31.4963C79.7675 31.4433 79.8963 31.3646 80.0044 31.2604C80.1125 31.1542 80.1961 31.0225 80.2551 30.8652L80.9275 31.054C80.8567 31.282 80.7377 31.4826 80.5706 31.6556C80.4035 31.8266 80.1971 31.9603 79.9513 32.0567C79.7056 32.151 79.4293 32.1982 79.1226 32.1982Z" fill="white"/>
<path d="M82.0569 32.1038V27.5741H82.7293V28.2583H82.7765C82.8591 28.0342 83.0085 27.8523 83.2248 27.7127C83.441 27.5731 83.6848 27.5033 83.9561 27.5033C84.0072 27.5033 84.0711 27.5043 84.1478 27.5063C84.2245 27.5082 84.2825 27.5112 84.3218 27.5151V28.2229C84.2982 28.217 84.2442 28.2082 84.1596 28.1964C84.077 28.1826 83.9895 28.1757 83.8971 28.1757C83.6769 28.1757 83.4803 28.2219 83.3073 28.3143C83.1363 28.4048 83.0006 28.5306 82.9004 28.6918C82.8021 28.851 82.7529 29.0329 82.7529 29.2374V32.1038H82.0569Z" fill="white"/>
</svg>
